<?xml version="1.0" standalone="no"?>
<!DOCTYPE svg PUBLIC "-//W3C//DTD SVG 20010904//EN"
 "http://www.w3.org/TR/2001/REC-SVG-20010904/DTD/svg10.dtd">
<svg version="1.0" xmlns="http://www.w3.org/2000/svg"
 width="900.000000pt" height="900.000000pt" viewBox="0 0 900.000000 900.000000"
 preserveAspectRatio="xMidYMid meet">
<metadata>
Created by potrace 1.10, written by Peter Selinger 2001-2011
</metadata>
<g transform="translate(0.000000,900.000000) scale(0.100000,-0.100000)"
fill="#ffffff" stroke="none">
<path d="M3995 8764 c-295 -35 -623 -105 -835 -179 -19 -7 -51 -18 -70 -24
-19 -7 -48 -17 -65 -21 -39 -11 -111 -38 -133 -49 -9 -5 -42 -19 -72 -31 -108
-44 -308 -140 -425 -206 -33 -18 -69 -37 -80 -43 -11 -5 -36 -20 -55 -33 -19
-13 -42 -27 -50 -31 -30 -15 -91 -56 -255 -170 -295 -205 -650 -549 -887 -858
-80 -104 -178 -238 -178 -243 0 -3 -19 -33 -43 -68 -24 -35 -46 -70 -50 -78
-4 -8 -16 -28 -26 -45 -11 -16 -29 -48 -41 -70 -12 -22 -35 -62 -50 -90 -72
-129 -167 -335 -225 -485 -9 -25 -22 -56 -27 -70 -6 -14 -25 -72 -44 -130 -86
-269 -124 -426 -168 -700 -73 -453 -60 -1090 29 -1467 8 -34 15 -71 15 -84 0
-12 6 -45 14 -73 8 -28 22 -80 31 -116 10 -36 23 -83 29 -105 7 -22 21 -67 31
-100 9 -33 24 -78 32 -100 8 -22 21 -57 29 -77 75 -203 102 -266 199 -458 113
-226 173 -326 353 -585 203 -292 572 -672 877 -902 89 -67 254 -183 260 -183
2 0 33 -20 69 -45 37 -25 68 -45 71 -45 3 0 26 -13 52 -29 53 -32 175 -99 238
-129 132 -65 236 -112 244 -112 5 0 22 -6 38 -14 36 -18 172 -73 198 -79 11
-3 54 -17 95 -31 192 -66 423 -124 640 -160 282 -47 313 -49 725 -49 413 0
429 1 725 49 203 33 510 109 608 150 18 8 39 14 47 14 8 0 29 6 47 14 31 13
55 22 161 62 95 36 190 78 347 154 73 35 171 88 232 125 31 19 58 35 61 35 3
0 34 19 69 43 35 23 71 47 80 52 235 146 574 433 779 658 56 62 118 130 138
152 21 22 59 69 86 105 28 36 55 72 62 80 168 210 375 557 498 835 14 33 32
74 39 90 8 17 21 50 31 75 9 25 22 54 28 65 5 11 14 33 18 50 4 16 17 55 29
85 19 50 35 100 59 185 5 17 19 66 31 110 13 44 26 98 30 120 4 22 12 60 18
85 35 142 67 370 83 580 12 162 7 603 -10 755 -28 266 -78 525 -137 716 -8 26
-14 54 -14 63 0 8 -6 30 -14 48 -8 18 -23 62 -35 98 -11 36 -30 90 -41 120
-12 30 -25 66 -30 80 -19 60 -126 298 -173 385 -28 53 -76 142 -106 197 -13
23 -36 62 -52 86 -16 24 -29 45 -29 46 0 8 -156 235 -213 310 -180 238 -357
428 -623 666 -50 45 -218 179 -264 210 -19 13 -37 27 -40 30 -16 17 -206 144
-255 170 -11 6 -33 19 -50 30 -16 11 -39 24 -50 30 -11 6 -47 26 -80 44 -121
68 -318 163 -425 206 -30 12 -68 27 -85 34 -57 25 -165 64 -210 76 -16 4 -41
12 -55 17 -23 10 -54 19 -190 57 -184 51 -361 85 -630 121 -152 20 -807 19
-985 -1z m780 -334 c203 -16 438 -50 556 -81 20 -5 58 -13 85 -19 27 -5 81
-19 119 -31 39 -11 86 -24 105 -29 34 -8 63 -17 145 -48 154 -56 197 -72 235
-89 19 -8 49 -21 65 -28 36 -15 293 -142 315 -155 8 -5 66 -40 128 -77 140
-84 143 -85 239 -152 562 -390 1056 -985 1329 -1598 24 -56 37 -85 65 -148 21
-48 38 -95 64 -170 13 -39 28 -81 33 -95 9 -24 26 -81 56 -192 38 -139 60
-242 90 -428 79 -486 57 -1034 -60 -1512 -41 -169 -68 -264 -90 -316 -8 -18
-14 -39 -14 -47 0 -8 -6 -29 -14 -47 -8 -18 -21 -51 -29 -73 -72 -191 -209
-477 -288 -600 -10 -16 -22 -37 -26 -45 -4 -8 -25 -41 -47 -75 -23 -33 -45
-68 -51 -77 -21 -36 -104 -154 -121 -175 -11 -12 -39 -47 -64 -79 -135 -172
-376 -424 -520 -543 -36 -30 -67 -57 -70 -61 -15 -20 -353 -265 -390 -283 -8
-4 -28 -16 -45 -27 -16 -11 -39 -24 -50 -30 -11 -6 -33 -19 -50 -29 -67 -43
-245 -135 -360 -186 -33 -14 -73 -32 -90 -39 -28 -13 -54 -23 -150 -59 -127
-47 -182 -67 -220 -77 -16 -4 -66 -18 -110 -30 -44 -12 -96 -26 -115 -30 -19
-4 -55 -12 -80 -18 -141 -33 -308 -61 -435 -72 -308 -28 -445 -32 -596 -21
-369 28 -370 28 -549 63 -30 5 -75 14 -100 18 -89 15 -339 82 -398 106 -18 8
-39 14 -47 14 -8 0 -29 6 -47 14 -18 8 -52 21 -75 30 -92 34 -129 49 -158 62
-16 7 -57 25 -90 39 -77 34 -260 126 -305 153 -19 12 -44 26 -55 31 -11 5 -36
20 -55 33 -19 13 -42 27 -50 31 -72 36 -360 246 -493 360 -74 63 -322 308
-390 385 -152 171 -355 451 -451 622 -11 19 -30 53 -42 75 -30 53 -136 267
-163 330 -12 28 -28 64 -35 80 -30 69 -91 234 -106 290 -5 17 -13 44 -18 60
-59 175 -112 421 -148 690 -15 104 -18 199 -18 470 1 347 3 386 50 665 31 188
108 487 150 588 8 18 14 41 14 50 0 10 7 27 15 38 8 10 15 27 15 37 0 11 6 31
14 45 8 15 24 52 36 82 126 313 347 686 567 957 240 294 561 594 836 779 89
59 96 64 218 137 63 38 121 72 129 77 20 12 275 138 320 158 62 27 105 44 225
89 22 8 55 21 73 29 18 8 39 14 47 14 8 0 29 6 47 14 18 8 62 22 98 31 36 10
85 23 110 30 45 13 136 33 272 60 285 56 705 79 1013 55z"/>
<path d="M4185 8001 c-306 -19 -676 -100 -965 -211 -30 -12 -66 -25 -80 -30
-102 -33 -428 -198 -538 -271 -24 -16 -45 -29 -48 -29 -3 0 -17 -8 -32 -19
-65 -45 -247 -176 -252 -181 -3 -3 -39 -32 -80 -65 -85 -67 -360 -339 -437
-430 -109 -130 -280 -369 -323 -450 -6 -11 -19 -33 -29 -50 -65 -102 -209
-396 -241 -495 -5 -14 -18 -50 -30 -80 -93 -243 -156 -520 -196 -855 -18 -161
-16 -596 5 -745 41 -294 85 -492 158 -705 14 -38 28 -84 32 -100 4 -17 13 -39
18 -50 6 -11 19 -40 28 -65 29 -73 54 -128 117 -255 62 -126 66 -134 111 -203
15 -24 27 -45 27 -48 0 -12 154 -236 223 -324 84 -106 123 -150 136 -150 15 0
53 13 166 56 22 9 51 18 65 21 14 3 30 10 37 15 7 6 27 14 45 18 18 5 58 18
88 30 33 13 95 25 155 30 95 8 266 31 274 36 4 3 -16 91 -36 156 -12 39 -12
73 -3 203 6 86 15 271 20 412 13 338 29 559 45 608 7 22 20 66 29 98 9 31 23
83 32 115 9 31 22 75 29 97 7 22 21 67 31 101 l18 61 306 204 c168 112 359
231 425 265 66 34 188 96 271 138 l151 77 54 85 c60 95 90 134 103 134 5 0 38
13 73 30 34 17 66 30 71 30 4 0 18 9 32 19 l24 19 -32 79 c-37 89 -38 80 32
208 18 33 57 107 88 165 30 58 65 122 77 143 33 59 29 75 -21 81 -24 3 -61 7
-83 8 -38 3 -41 5 -59 55 -22 63 -14 79 43 89 20 4 48 13 63 20 15 8 38 14 51
14 38 0 74 35 145 144 37 56 69 106 72 111 3 6 35 56 72 111 64 97 70 103 140
138 95 49 100 54 143 144 107 221 110 227 136 224 13 -1 42 -12 65 -22 42 -21
56 -41 89 -130 9 -25 24 -61 33 -79 21 -43 19 -239 -4 -401 l-14 -105 37 -35
c21 -20 66 -57 100 -84 35 -26 67 -55 73 -66 16 -30 1 -106 -26 -131 -33 -31
-30 -43 16 -90 38 -39 40 -43 40 -105 0 -40 -6 -77 -16 -95 -11 -22 -18 -80
-25 -197 -13 -251 -10 -236 -79 -352 -76 -127 -79 -145 -79 -476 l-1 -222 -71
-138 c-40 -77 -79 -152 -87 -169 -9 -16 -53 -84 -98 -151 -76 -113 -91 -144
-129 -274 -29 -98 -57 -256 -75 -430 -5 -41 -13 -123 -19 -181 -6 -58 -12
-197 -13 -310 -2 -166 1 -215 15 -265 9 -34 17 -77 17 -95 0 -61 10 -78 49
-89 20 -5 167 -14 326 -19 672 -23 1273 -57 1320 -74 22 -8 67 -22 100 -32
103 -30 159 -47 200 -61 22 -7 58 -16 81 -20 40 -6 41 -6 113 73 40 43 123
146 184 228 125 169 114 151 202 300 36 61 70 117 75 125 31 49 170 345 170
361 0 6 5 20 12 32 12 22 61 156 78 212 5 17 19 62 30 100 12 39 25 88 29 110
4 22 13 58 19 80 66 245 102 667 83 973 -20 317 -58 536 -148 842 -15 52 -23
76 -60 175 -9 22 -22 58 -30 80 -36 96 -146 333 -183 395 -5 8 -33 56 -62 105
-28 50 -70 117 -92 150 -51 76 -236 320 -273 361 -15 17 -64 70 -107 118 -86
94 -245 238 -390 354 -82 66 -298 217 -336 235 -8 4 -28 16 -45 26 -101 65
-313 169 -490 240 -44 18 -95 39 -113 47 -18 8 -39 14 -47 14 -8 0 -29 6 -47
14 -63 26 -309 92 -398 106 -25 4 -72 12 -105 18 -219 42 -591 60 -870 43z"/>
<path d="M4587 3463 c-8 -14 -41 -161 -76 -338 -6 -27 -12 -165 -13 -305 -3
-241 -2 -259 19 -325 13 -38 28 -90 34 -115 13 -58 34 -80 76 -80 43 0 51 20
27 72 -19 43 -21 147 -4 223 9 39 7 74 -20 442 -6 76 -14 202 -17 281 -5 128
-13 168 -26 145z"/>
<path d="M4128 3416 c-143 -71 -187 -86 -273 -92 -46 -4 -89 -11 -97 -15 -10
-6 -14 -61 -18 -231 -3 -140 -9 -230 -16 -243 -7 -11 -20 -40 -29 -65 -10 -25
-24 -60 -31 -77 -8 -18 -21 -49 -29 -68 -8 -19 -21 -50 -29 -68 -46 -105 -68
-168 -63 -181 5 -13 26 -16 117 -16 61 0 191 -7 289 -15 98 -9 213 -15 256
-13 l78 3 -1 235 c0 134 -5 259 -11 290 -14 67 -29 211 -45 424 -6 88 -15 161
-21 163 -5 1 -40 -12 -77 -31z"/>
<path d="M2937 2893 c-3 -5 1 -51 9 -103 7 -52 14 -118 14 -147 0 -64 18 -200
30 -230 9 -23 53 -33 64 -15 5 9 -4 72 -27 192 -23 117 -36 192 -42 230 -6 38
-39 88 -48 73z"/>
<path d="M3310 2525 c-7 -9 -14 -43 -14 -78 l-1 -62 35 0 c33 0 35 2 38 35 3
40 -17 112 -34 117 -6 2 -17 -3 -24 -12z"/>
</g>
</svg>
